<svg xmlns="http://www.w3.org/2000/svg" viewBox="0 0 64 64" role="img" aria-labelledby="title desc">
  <title id="title">Name Forge favicon</title>
  <desc id="desc">A tiny glowing forge anvil with sparks and an N monogram.</desc>
  <defs>
    <linearGradient id="ember" x1="10" y1="6" x2="54" y2="58" gradientUnits="userSpaceOnUse">
      <stop stop-color="#3a2413" />
      <stop offset="0.52" stop-color="#17100b" />
      <stop offset="1" stop-color="#090806" />
    </linearGradient>
    <linearGradient id="gold" x1="16" y1="12" x2="48" y2="52" gradientUnits="userSpaceOnUse">
      <stop stop-color="#ffe7a3" />
      <stop offset="0.5" stop-color="#f0b85f" />
      <stop offset="1" stop-color="#cc6f25" />
    </linearGradient>
    <radialGradient id="heat" cx="32" cy="38" r="24" gradientUnits="userSpaceOnUse">
      <stop stop-color="#f0b85f" stop-opacity="0.38" />
      <stop offset="1" stop-color="#f0b85f" stop-opacity="0" />
    </radialGradient>
    <filter id="glow" x="-40%" y="-40%" width="180%" height="180%" color-interpolation-filters="sRGB">
      <feDropShadow dx="0" dy="0" stdDeviation="3" flood-color="#f0b85f" flood-opacity="0.55" />
    </filter>
  </defs>
  <rect width="64" height="64" rx="15" fill="url(#ember)" />
  <circle cx="32" cy="38" r="24" fill="url(#heat)" />
  <path d="M13 44h30c4.7 0 8.8-2.9 10.4-7.3l1.1-3.1H42l3.7-5.8H17.7l2.5 5.8h-7.9c-2.5 0-4.3 2.3-3.7 4.7l.3 1.2c.6 2.6 2.3 4.5 4.1 4.5Z" fill="#21150d" stroke="url(#gold)" stroke-width="2.4" stroke-linejoin="round" />
  <path d="M23 50h19l-3.1-6H25.8L23 50Z" fill="#21150d" stroke="#f0b85f" stroke-width="2" stroke-linejoin="round" />
  <path d="M25 20v16h4.2V27l6.7 9H40V20h-4.2v9l-6.7-9H25Z" fill="url(#gold)" filter="url(#glow)" />
  <path d="M48 13l1.7 3.4 3.8.6-2.7 2.7.7 3.8-3.5-1.8-3.4 1.8.6-3.8-2.7-2.7 3.8-.6L48 13Z" fill="#ffe7a3" filter="url(#glow)" />
  <path d="M17 12l1.1 2.2 2.4.4-1.8 1.7.5 2.4-2.2-1.2-2.2 1.2.4-2.4-1.7-1.7 2.4-.4L17 12Z" fill="#f0b85f" opacity="0.9" />
  <circle cx="49" cy="31" r="2" fill="#ffcf7a" />
  <circle cx="14" cy="27" r="1.6" fill="#ffcf7a" opacity="0.85" />
</svg>
